<?xml version="1.0" standalone="no"?>
<!DOCTYPE svg PUBLIC "-//W3C//DTD SVG 20010904//EN"
 "http://www.w3.org/TR/2001/REC-SVG-20010904/DTD/svg10.dtd">
<svg version="1.0" xmlns="http://www.w3.org/2000/svg"
 width="94.000000pt" height="94.000000pt" viewBox="0 0 94.000000 94.000000"
 preserveAspectRatio="xMidYMid meet">
<metadata>
Created by potrace 1.14, written by Peter Selinger 2001-2017
</metadata>
<g transform="translate(0.000000,94.000000) scale(0.100000,-0.100000)"
fill="#000000" stroke="none">
<path d="M443 814 c-15 -20 -38 -49 -51 -64 l-23 -29 -86 30 c-48 16 -88 29
-90 29 -2 0 0 -35 3 -78 6 -71 5 -78 -12 -78 -11 -1 -32 -4 -49 -7 -16 -4 -43
-9 -60 -13 -72 -14 -72 -12 -6 -78 l62 -63 -60 -58 c-34 -32 -61 -61 -61 -65
0 -3 12 -7 27 -8 16 -1 49 -7 74 -13 43 -9 75 -16 90 -18 3 -1 2 -33 -3 -72
-5 -40 -7 -74 -4 -76 2 -2 43 9 90 26 l86 30 49 -65 50 -65 50 64 51 64 87
-28 c48 -16 89 -27 91 -25 2 3 0 36 -5 75 l-9 70 51 11 c51 11 99 20 122 24
26 4 21 15 -37 70 -33 32 -60 59 -60 61 0 2 27 30 60 61 65 61 65 67 0 78 -37
6 -67 12 -111 21 l-25 6 9 70 c5 39 7 72 5 75 -2 2 -43 -9 -91 -25 -98 -32
-84 -36 -150 52 l-36 47 -28 -36z m107 -210 c14 3 35 8 48 12 20 6 22 3 22
-35 0 -36 3 -41 28 -47 58 -12 59 -14 30 -39 -30 -26 -29 -49 3 -66 22 -11 25
-25 7 -27 -7 0 -22 -3 -33 -6 -11 -2 -24 -5 -29 -5 -4 -1 -6 -19 -4 -41 4 -44
2 -45 -54 -28 -38 11 -40 10 -68 -23 l-30 -34 -30 34 c-28 33 -30 34 -68 23
-56 -17 -58 -16 -54 27 4 37 2 39 -30 46 -49 11 -51 15 -23 40 14 13 25 26 25
29 0 3 -12 16 -27 30 -29 27 -25 32 27 39 22 4 25 9 25 46 0 47 -8 45 81 24
15 -3 28 5 48 32 l28 37 26 -37 c22 -30 31 -36 52 -31z"/>
</g>
</svg>
